<svg width="1000" height="1000" viewBox="0 0 1000 1000" fill="none" xmlns="http://www.w3.org/2000/svg">
<path d="M840.821 0C928.733 0 1000 71.267 1000 159.179V840.821C1000 928.733 928.733 1000 840.821 1000H159.179C71.267 1000 0 928.733 0 840.821V159.179C0 71.267 71.267 1.45279e-06 159.179 0H840.821Z" fill="#4877F9"/>
<path d="M268.735 760.549C289.779 770.208 311.686 772.278 334.456 766.758C362.4 758.824 400.866 727.429 449.855 672.576C465.035 724.324 486.942 758.134 515.576 774.003C526.616 770.553 536.966 765.723 546.625 759.514V758.996C560.425 750.026 572.327 738.987 582.332 725.877C570.602 709.317 567.152 688.79 571.982 664.296L592.682 598.575C610.276 549.931 668.407 509.74 767.075 478.001C752.93 492.835 742.753 512.672 736.543 537.512L692.557 732.604C692.902 749.509 703.769 761.928 725.158 769.863C698.249 795.048 663.922 823.164 622.178 854.214C580.78 885.263 541.105 901.305 503.156 902.34C465.552 903.03 439.161 878.881 423.981 829.892C392.587 858.871 364.815 882.331 340.665 900.27C287.537 900.96 238.548 879.398 193.699 835.584C148.85 791.425 126.081 741.919 125.391 687.065C124.701 632.212 146.608 587.363 191.112 552.519C235.616 517.33 282.362 505.6 331.351 517.33C380.339 529.059 412.596 557.349 428.121 602.197C443.99 647.046 421.738 689.135 361.365 728.464C329.626 743.989 302.889 745.369 281.154 732.604C259.42 719.495 248.898 701.037 249.588 677.233C250.623 653.084 261.835 637.559 283.224 630.659C304.614 623.414 319.793 627.209 328.763 642.044C337.733 656.879 342.735 658.604 343.77 647.219C348.255 634.109 339.975 621.689 318.931 609.96C298.232 598.23 276.325 602.887 253.21 623.932C230.096 644.976 221.643 670.678 227.853 701.037C234.408 731.052 248.035 750.889 268.735 760.549ZM383.617 415.385C441.92 424.699 513.506 419.524 598.374 399.86C610.104 396.41 620.971 391.925 630.976 386.405C645.81 378.47 658.23 369.328 668.235 358.978C654.78 347.939 650.123 333.277 654.263 314.992L691.522 199.592C708.081 162.678 769.145 128.697 874.712 97.6475C860.223 109.377 850.218 124.729 844.698 143.704L788.292 355.356C789.327 367.431 801.747 375.538 825.551 379.678C797.262 400.377 759.14 426.079 711.186 456.784C663.232 487.488 586.817 504.047 481.939 506.462C379.822 510.947 303.406 498.873 252.693 470.238C201.979 441.604 174.897 407.277 171.447 367.258C167.997 327.239 189.559 292.74 236.133 263.761C282.707 234.437 332.731 222.189 386.204 227.019C440.023 231.504 476.42 249.616 495.394 281.355C514.714 312.75 492.462 345.179 428.638 378.643C395.174 392.788 366.367 396.065 342.218 388.475C318.069 380.54 305.821 367.776 305.476 350.181C305.131 332.587 316.344 320.339 339.113 313.44C362.227 306.54 378.96 308.265 389.309 318.614C400.004 328.619 405.524 329.309 405.869 320.684C410.354 310.68 401.039 302.227 377.925 295.328C354.81 288.428 331.178 293.603 307.029 310.852C283.224 328.102 275.462 347.594 283.742 369.328C292.022 390.718 325.313 406.07 383.617 415.385Z" fill="white"/>
</svg>
